<?xml version="1.0" encoding="UTF-8" standalone="no"?>
<!-- Created with Inkscape (http://www.inkscape.org/) -->

<svg
   width="36.035316mm"
   height="36.101387mm"
   viewBox="0 0 36.035316 36.101387"
   version="1.1"
   id="svg1"
   xml:space="preserve"
   inkscape:version="1.3.2 (091e20e, 2023-11-25, custom)"
   sodipodi:docname="logo.svg"
   xmlns:inkscape="http://www.inkscape.org/namespaces/inkscape"
   xmlns:sodipodi="http://sodipodi.sourceforge.net/DTD/sodipodi-0.dtd"
   xmlns="http://www.w3.org/2000/svg"
   xmlns:svg="http://www.w3.org/2000/svg"><sodipodi:namedview
     id="namedview1"
     pagecolor="#ffffff"
     bordercolor="#000000"
     borderopacity="0.25"
     inkscape:showpageshadow="2"
     inkscape:pageopacity="0.0"
     inkscape:pagecheckerboard="0"
     inkscape:deskcolor="#d1d1d1"
     inkscape:document-units="mm"
     inkscape:zoom="4.0054793"
     inkscape:cx="339.78455"
     inkscape:cy="254.27668"
     inkscape:window-width="1920"
     inkscape:window-height="991"
     inkscape:window-x="-9"
     inkscape:window-y="-9"
     inkscape:window-maximized="1"
     inkscape:current-layer="layer1"
     showguides="true"><sodipodi:guide
       position="7.5337796,296.87042"
       orientation="0,-1"
       id="guide1"
       inkscape:locked="false" /><sodipodi:guide
       position="8.1943336,260.87025"
       orientation="0,-1"
       id="guide2"
       inkscape:locked="false" /><sodipodi:guide
       position="0.0034706089,269.85378"
       orientation="1,0"
       id="guide3"
       inkscape:locked="false" /><sodipodi:guide
       position="36.003641,258.62437"
       orientation="1,0"
       id="guide4"
       inkscape:locked="false" /></sodipodi:namedview><defs
     id="defs1" /><g
     inkscape:label="Capa 1"
     inkscape:groupmode="layer"
     id="layer1"
     transform="translate(-82.631769,-49.34587)"><path
       style="fill:#2c89a0;stroke-width:0.158914"
       d="m 82.631766,49.42488 36.035324,-0.07901 v 36.101382 l -36.035324,5e-6 z m 19.068264,34.816929 c 3.95397,-1.745669 6.87688,-3.579755 8.8761,-5.569652 2.9553,-2.941521 4.6727,-6.287924 5.10414,-9.945598 0.0555,-0.470239 0.0644,-1.50048 0.0635,-7.375031 -5.9e-4,-4.881947 -0.0141,-6.844242 -0.047,-6.883882 -0.0553,-0.06663 -0.11195,-0.07559 -1.02566,-0.161883 -2.98443,-0.281877 -5.38282,-0.718581 -7.63128,-1.389533 -1.55301,-0.463421 -3.38571,-1.212313 -5.16652,-2.111202 -0.78746,-0.397474 -1.13382,-0.551987 -1.19427,-0.532794 -0.0468,0.01487 -0.41811,0.201935 -0.825022,0.415703 -3.052985,1.603878 -6.051211,2.5966 -9.59047,3.175441 -1.153005,0.188572 -3.253525,0.450507 -4.150622,0.517583 -0.120643,0.0089 -0.248881,0.04091 -0.284976,0.07086 -0.05909,0.04904 -0.06433,0.760357 -0.05266,7.143576 0.01283,7.015231 0.0139,7.094819 0.103006,7.637028 0.38513,2.343838 1.184443,4.335543 2.589606,6.452701 1.847659,2.783861 4.154752,4.781965 7.934342,6.871686 0.517441,0.28609 2.334857,1.191421 3.048318,1.518493 0.968608,0.44404 1.190828,0.526551 1.366498,0.507396 0.081,-0.0087 0.47825,-0.162232 0.88295,-0.3409 z m -1.56285,-1.553795 C 97.852581,81.691262 95.298576,80.237086 93.661915,79.001188 91.54531,77.40287 89.86557,75.388502 88.685317,73.033183 c -0.643635,-1.284442 -1.012155,-2.37388 -1.26993,-3.754239 l -0.111003,-0.59443 -0.01443,-6.363917 c -0.0109,-4.772395 -0.0023,-6.378566 0.03415,-6.422493 0.0288,-0.03471 0.128303,-0.05857 0.244167,-0.05857 0.675352,0 3.495973,-0.447449 5.182682,-0.822156 2.58278,-0.573771 5.565722,-1.661937 7.572417,-2.762385 l 0.45234,-0.248056 0.13631,0.08357 c 0.30182,0.185014 1.80879,0.91399 2.48538,1.20227 2.91977,1.244064 6.18357,2.06431 9.80216,2.463445 0.43937,0.04847 0.84338,0.101225 0.89777,0.11726 l 0.0989,0.02914 -0.003,6.236655 c -0.002,5.439578 -0.012,6.302006 -0.0702,6.747973 -0.23541,1.803966 -0.87951,3.548167 -1.96514,5.321633 -2.02793,3.312717 -4.84612,5.640404 -9.61984,7.945467 -0.6389,0.308515 -1.74085,0.807493 -1.77501,0.803762 -0.005,-4.76e-4 -0.28637,-0.122062 -0.62562,-0.270075 z m 5.41978,-5.08329 c -0.0127,-0.26175 -0.0516,-0.548182 -0.088,-0.648167 -0.10681,-0.292756 -0.30199,-0.539892 -0.50302,-0.637205 -0.18346,-0.08883 -0.18622,-0.08888 -4.2018,-0.07775 l -4.018227,0.01112 -0.182304,0.126138 c -0.125984,0.08717 -0.220872,0.203353 -0.307147,0.37608 -0.114881,0.230007 -0.12619,0.293024 -0.141673,0.790005 l -0.01684,0.540062 4.740861,-0.0056 4.74088,-0.0056 z m -1.37624,-2.151216 c -0.36717,-0.197341 -0.8243,-0.348851 -1.20882,-0.400654 l -0.38891,-0.05239 v -0.471888 c 0,-0.53043 -0.0497,-0.64822 -0.32104,-0.761616 -0.19958,-0.08339 -2.562742,-0.08394 -2.762091,-6.44e-4 -0.24808,0.103659 -0.301562,0.238898 -0.301562,0.762561 v 0.462503 l -0.258642,0.02854 c -0.504637,0.05566 -1.109561,0.24501 -1.454269,0.45518 l -0.137104,0.0836 3.510818,-0.0018 3.51085,-0.0018 z m -2.11443,-3.174177 c 0.2495,-0.335368 0.71851,-0.975682 1.04227,-1.422921 l 0.58864,-0.813162 0.0842,0.117621 c 0.0463,0.06468 0.15218,0.192543 0.2354,0.284117 l 0.15133,0.166496 -0.49182,0.760391 c -0.27048,0.418216 -0.59875,0.919383 -0.72944,1.113705 -0.13071,0.194323 -0.2377,0.364609 -0.23776,0.378413 -4e-5,0.0138 0.16619,0.01912 0.36943,0.01184 l 0.36953,-0.01327 0.22666,-0.365148 c 0.59127,-0.952538 1.15761,-1.843836 1.21403,-1.910588 0.0344,-0.04061 0.0546,-0.07959 0.0451,-0.08663 -0.008,-0.0071 -0.11559,-0.07447 -0.23579,-0.149861 -0.29326,-0.183945 -0.49958,-0.420998 -0.65863,-0.756651 -0.12224,-0.257975 -0.13195,-0.311492 -0.13195,-0.726661 v -0.448176 l -0.14569,0.06088 c -0.0801,0.0335 -0.16181,0.0838 -0.18152,0.111801 -0.10304,0.146347 -0.15632,0.349883 -0.15632,0.596585 0,0.27252 -0.002,0.277878 -0.24537,0.579478 -0.28374,0.352028 -1.21751,1.578703 -1.26128,1.656913 -0.0223,0.03992 -0.0839,0.02595 -0.25177,-0.05715 -0.15634,-0.07737 -0.31284,-0.115778 -0.52812,-0.129596 -0.57673,-0.037 -1.04228,0.187847 -1.35936,0.656581 -0.187583,0.277297 -0.248996,0.443419 -0.290209,0.785007 l -0.02542,0.210738 1.075139,-4.78e-4 1.07516,-4.76e-4 z m -6.471872,-1.096262 c 0.552401,-0.141128 0.941758,-0.378709 1.438522,-0.877762 0.307479,-0.308893 0.500467,-0.54561 0.635815,-0.779876 0.726951,-1.258263 0.858932,-2.805943 0.367516,-4.309693 -0.385397,-1.179327 -1.36771,-2.368259 -2.369817,-2.868277 -0.399579,-0.199376 -3.320959,-1.270654 -3.71975,-1.364042 -0.350289,-0.08203 -0.918377,-0.07928 -1.238227,0.006 -0.653677,0.174327 -1.222106,0.662081 -1.550343,1.330305 -0.29591,0.602406 -0.343488,0.825646 -0.343882,1.613572 -3.18e-4,0.590655 0.01332,0.726596 0.111617,1.114214 0.130328,0.513954 0.47292,1.597605 0.569361,1.800947 0.112613,0.237417 0.407737,0.273418 0.54345,0.0663 0.06011,-0.09174 0.05273,-0.134377 -0.106637,-0.615009 -0.372286,-1.122792 -0.474356,-1.565838 -0.498053,-2.161796 -0.01705,-0.428695 -0.006,-0.623832 0.04932,-0.8726 0.185324,-0.832999 0.738884,-1.454924 1.467719,-1.648984 0.48621,-0.129457 0.833889,-0.06196 2.087565,0.405287 0.381564,0.142211 0.977562,0.360739 1.324442,0.485619 1.236363,0.445113 1.7653,0.777952 2.309196,1.453103 0.357387,0.443635 0.7374,1.204309 0.889689,1.780895 0.13597,0.514804 0.181549,1.342346 0.103375,1.876957 -0.215634,1.474735 -1.135083,2.615882 -2.35304,2.920406 -0.371571,0.0929 -1.098947,0.06333 -1.474796,-0.05996 -0.963856,-0.31618 -1.8144,-1.106093 -2.352832,-2.185119 -0.336952,-0.675259 -0.467824,-1.246915 -0.468437,-2.046182 -8.18e-4,-0.948951 0.214662,-1.674469 0.720296,-2.426244 0.160704,-0.238934 0.291596,-0.453344 0.290872,-0.476469 -8.18e-4,-0.02312 -0.07825,-0.127167 -0.172262,-0.231205 l -0.170944,-0.189159 -0.186677,0.210182 c -0.518115,0.583359 -0.869414,1.301528 -1.028331,2.102242 -0.07747,0.390253 -0.07753,1.585366 -1.13e-4,1.97615 0.200222,1.010793 0.676829,1.930035 1.392278,2.685319 1.109472,1.171245 2.416694,1.621158 3.733106,1.284839 z m 2.321484,-0.320515 c 1.171362,-0.333088 1.973951,-1.143702 2.371628,-2.39535 0.14571,-0.458606 0.19334,-0.750971 0.22236,-1.364852 l 0.0251,-0.531014 -0.1533,-0.252356 c -0.12532,-0.206313 -1.503301,-2.228067 -1.746568,-2.562548 -0.09752,-0.13409 -0.137557,-0.140287 -0.399448,-0.06185 l -0.235627,0.07058 0.149964,0.24856 c 0.318689,0.52822 0.543424,1.0893 0.683543,1.706569 0.225234,0.992207 0.140435,2.348116 -0.20555,3.286758 -0.255192,0.692315 -0.550423,1.169979 -1.039591,1.681987 -0.310283,0.324767 -0.312593,0.32882 -0.172195,0.302164 0.07828,-0.01486 0.303129,-0.07276 0.499692,-0.128642 z m 2.922178,-1.02123 c 0.52418,-0.179587 1.54218,-0.556042 1.70773,-0.631507 0.0999,-0.04554 0.10802,-0.06707 0.0891,-0.235155 -0.0246,-0.218377 0.0541,-0.532183 0.15665,-0.625051 0.0753,-0.06819 0.69284,-0.318496 1.19162,-0.483049 0.22572,-0.07446 0.32544,-0.136486 0.4729,-0.294146 0.12267,-0.131138 0.29036,-0.24749 0.48809,-0.338626 0.31142,-0.14354 0.52963,-0.169241 1.06552,-0.1255 0.18408,0.01502 0.33312,-0.02907 1.19831,-0.354558 1.46037,-0.549389 1.95486,-0.816805 2.54718,-1.377406 0.40567,-0.38396 0.73584,-0.824645 0.99258,-1.324826 0.18651,-0.363327 0.40239,-0.962216 0.36156,-1.003038 -0.0204,-0.02044 -0.40942,0.110359 -1.757,0.590859 -0.49719,0.177285 -1.28237,0.454928 -1.74489,0.616988 -2.00668,0.703126 -2.4481,0.857413 -3.34265,1.168366 -0.93211,0.324016 -2.62394,0.916134 -2.89063,1.011697 l -0.13665,0.04896 -1.7e-4,0.489924 c -3.1e-4,1.162505 -0.36633,2.340325 -0.92167,2.966602 -0.0934,0.105281 -0.0966,0.117691 -0.0242,0.09002 0.0463,-0.01765 0.29222,-0.103416 0.5466,-0.190554 z m 1.93215,-2.703524 c -0.0998,-0.08577 -0.1115,-0.119522 -0.0871,-0.249576 0.036,-0.19163 0.0586,-0.208403 0.4885,-0.36136 0.19658,-0.06994 0.8777,-0.320225 1.51365,-0.556183 0.63595,-0.235958 1.21591,-0.437981 1.28879,-0.448938 0.15941,-0.02396 0.30895,0.101552 0.30895,0.259269 0,0.21015 -0.15056,0.298201 -1.07216,0.627005 -0.48563,0.173262 -1.16678,0.418597 -1.51365,0.545194 -0.85394,0.31165 -0.7933,0.299573 -0.92697,0.184589 z m 6.09168,-2.198449 c -0.0902,-0.09015 -0.10399,-0.133995 -0.0835,-0.262787 0.0452,-0.282259 0.32279,-0.391128 0.54721,-0.214599 0.15315,0.120464 0.15292,0.340314 -4.8e-4,0.482484 -0.14674,0.136005 -0.32411,0.134053 -0.46326,-0.0052 z m -13.514268,4.821652 c 0.66546,-0.207115 1.266771,-0.858236 1.537748,-1.665131 0.689586,-2.0534 -0.545553,-4.387904 -2.581805,-4.879796 -0.262068,-0.0633 -0.35474,-0.06794 -0.581783,-0.02904 -0.371904,0.06371 -0.684106,0.227163 -1.002194,0.52472 -0.459694,0.430023 -0.768333,0.963183 -0.948603,1.638678 -0.121455,0.455112 -0.133228,1.37359 -0.02325,1.813238 0.264101,1.055686 0.966651,1.988405 1.812664,2.406533 0.643352,0.317966 1.190834,0.376413 1.787216,0.190798 z m -1.468134,-0.985844 c -0.331757,-0.117489 -0.394523,-0.15056 -0.609664,-0.321222 -0.356584,-0.282863 -0.699127,-0.791688 -0.847185,-1.258434 -0.09737,-0.30692 -0.118231,-0.981735 -0.04151,-1.341859 0.151226,-0.709795 0.575671,-1.292617 1.110468,-1.52482 0.71226,-0.309259 1.482966,-0.129604 2.092345,0.48774 0.695318,0.704402 0.949329,1.764886 0.64448,2.690669 -0.342491,1.040091 -1.392241,1.606734 -2.348938,1.267926 z m 0.851426,-0.728032 c 0.06358,-0.0322 0.115623,-0.07442 0.115623,-0.09386 0,-0.01942 -0.132037,-0.04476 -0.29342,-0.05632 -0.236143,-0.01689 -0.339661,-0.04877 -0.530326,-0.16332 -0.780069,-0.468637 -1.002522,-1.43099 -0.48277,-2.088524 0.227487,-0.287792 0.482897,-0.408366 0.865037,-0.408366 0.161874,0 0.336889,0.01548 0.388923,0.03437 0.162009,0.05885 0.103975,-0.02786 -0.121467,-0.181525 -0.197552,-0.134649 -0.241336,-0.147055 -0.514981,-0.145914 -0.369093,0.0016 -0.564619,0.09448 -0.837627,0.398128 -0.436947,0.48599 -0.527639,1.263703 -0.2231,1.913142 0.318427,0.679048 1.104638,1.060184 1.634106,0.792169 z m -0.301598,-1.440646 c 0.100635,-0.100624 0.122903,-0.158364 0.122903,-0.318578 0,-0.159415 -0.02238,-0.218048 -0.120749,-0.316423 -0.16077,-0.160771 -0.31463,-0.195612 -0.491451,-0.111297 -0.180816,0.08623 -0.287452,0.287538 -0.25576,0.482833 0.05995,0.36946 0.487775,0.520743 0.745057,0.26346 z m 11.613274,3.219637 c 0.35784,-0.149951 0.618,-0.54204 0.618,-0.931375 0,-0.621191 -0.60787,-1.123702 -1.19921,-0.991366 -0.2661,0.05955 -0.54429,0.283247 -0.65476,0.526514 -0.22831,0.502626 0.0272,1.174781 0.53032,1.394532 0.16538,0.07224 0.53518,0.07312 0.70565,0.0017 z m -0.54464,-0.59312 c -0.15646,-0.0682 -0.22406,-0.176709 -0.22406,-0.359748 0,-0.180397 0.19781,-0.377943 0.37842,-0.377943 0.18708,0 0.37843,0.19723 0.37843,0.390062 0,0.140499 -0.1523,0.366763 -0.24684,0.366763 -0.0223,0 -0.0657,0.0086 -0.0966,0.01949 -0.0309,0.01078 -0.11605,-0.0067 -0.18934,-0.03862 z m -3.69161,-3.781401 c 0.43871,-0.14778 1.45987,-0.499576 2.26925,-0.781771 0.80939,-0.282194 1.70811,-0.594686 1.99719,-0.694423 1.52426,-0.525932 5.74294,-1.997081 6.21225,-2.166358 0.0751,-0.02711 0.13665,-0.06212 0.13665,-0.07782 0,-0.157756 -0.35529,-1.97235 -0.39371,-2.010758 -0.0136,-0.01361 -0.25699,0.04544 -0.54083,0.131253 -0.46195,0.139674 -1.99796,0.58769 -4.78369,1.395307 -2.68823,0.77935 -3.16595,0.917479 -3.55287,1.0273 -0.23124,0.06563 -1.15757,0.338052 -2.05852,0.605363 -0.90092,0.267313 -1.662475,0.486024 -1.692334,0.486024 -0.02986,0 -0.0543,0.01022 -0.0543,0.02252 0,0.01238 0.280978,0.43337 0.624404,0.935519 0.34342,0.50215 0.69818,1.021073 0.78835,1.15316 0.0902,0.132088 0.18343,0.240882 0.20723,0.241765 0.0238,9.34e-4 0.4022,-0.119308 0.84093,-0.267089 z m 0.0607,-0.786367 c -0.4543,-0.263548 -0.50767,-0.997048 -0.0939,-1.291618 0.377,-0.268456 0.85464,-0.170501 1.08496,0.222511 0.11367,0.19396 0.14131,0.542217 0.0563,0.707884 -0.0696,0.135767 -0.25243,0.322383 -0.3817,0.389912 -0.1667,0.08708 -0.48997,0.07315 -0.66552,-0.02868 z m 8.92615,-3.125471 c -0.25731,-0.216519 -0.27727,-0.55043 -0.0467,-0.781011 0.10636,-0.106369 0.15876,-0.126001 0.33622,-0.126001 0.17508,0 0.23028,0.02004 0.33006,0.119812 0.31998,0.319988 0.13581,0.814451 -0.32644,0.876454 -0.13175,0.01767 -0.18551,0.0013 -0.29314,-0.08926 z m -12.24658,1.221488 c 0.450939,-0.126769 0.952336,-0.267785 1.114212,-0.31337 1.441438,-0.405898 11.928728,-3.41828 12.016298,-3.451568 0.1409,-0.05356 0.14121,-0.07715 0.003,-0.281288 -0.32288,-0.480085 -0.80814,-0.985489 -1.21685,-1.267376 -0.18035,-0.124386 -0.68294,-0.372802 -0.90463,-0.447142 -0.74549,-0.24998 -1.3781,-0.246813 -2.39355,0.01198 -0.35844,0.09134 -1.96669,0.497399 -3.5739,0.902325 -1.60719,0.404927 -4.36015,1.099132 -6.117662,1.542676 -1.757512,0.443543 -3.504666,0.882023 -3.882564,0.974395 -0.377894,0.09237 -0.671164,0.182249 -0.651707,0.199721 0.01945,0.01747 0.5222,0.205175 1.117209,0.417121 1.923275,0.685084 2.331775,0.897798 3.18581,1.658917 0.200946,0.179085 0.384997,0.310976 0.42046,0.301301 0.03469,-0.0095 0.432019,-0.12093 0.882959,-0.247698 z"
       id="path1"
       sodipodi:nodetypes="cccccssccssssssscssssssssscsssccsssscsssscccssccccssscssscccccscsssscsscccccsccscsssscssccsscscsccsssscccccssssscssssssscssssssssscscscssssccssscssscsssssssssccssssssssssssccssssccssssssccsssccssssssssssssssssssssssssssssssssssssssssssssssssssssssssssssssssssccsscssssccssssssscsscssssssssssccss"
       inkscape:export-filename="path1.webp"
       inkscape:export-xdpi="96"
       inkscape:export-ydpi="96" /></g></svg>
