<?xml version="1.0" encoding="UTF-8" standalone="no"?>
<!-- Created with Inkscape (http://www.inkscape.org/) -->

<svg
   width="32.699295mm"
   height="19.980394mm"
   viewBox="0 0 32.699295 19.980394"
   version="1.1"
   id="svg1"
   xmlns:inkscape="http://www.inkscape.org/namespaces/inkscape"
   xmlns:sodipodi="http://sodipodi.sourceforge.net/DTD/sodipodi-0.dtd"
   xmlns="http://www.w3.org/2000/svg"
   xmlns:svg="http://www.w3.org/2000/svg">
  <sodipodi:namedview
     id="namedview1"
     pagecolor="#ffffff"
     bordercolor="#000000"
     borderopacity="0.25"
     inkscape:showpageshadow="2"
     inkscape:pageopacity="0.0"
     inkscape:pagecheckerboard="0"
     inkscape:deskcolor="#d1d1d1"
     inkscape:document-units="mm"
     showguides="true"
     inkscape:zoom="1.3843855"
     inkscape:cx="105.82312"
     inkscape:cy="409.92916"
     inkscape:window-width="1920"
     inkscape:window-height="991"
     inkscape:window-x="-9"
     inkscape:window-y="-9"
     inkscape:window-maximized="1"
     inkscape:current-layer="svg1" />
  <defs
     id="defs1" />
  <g
     inkscape:label="Capa 1"
     inkscape:groupmode="layer"
     id="layer1"
     transform="translate(-35.300687,-82.351049)">
    <g
       id="g746"
       inkscape:export-filename="logo.svg"
       inkscape:export-xdpi="96"
       inkscape:export-ydpi="96">
      <path
         id="text6"
         style="font-weight:900;font-size:23.5465px;font-family:Arial;-inkscape-font-specification:'Arial Heavy';fill:#5d536c;stroke-width:1.9622"
         d="m 67.987581,82.351046 -15.832108,0.04754 0.01292,4.16202 5.311304,-0.01602 0.02429,8.127153 c 0.133998,-0.04875 0.267972,-0.08579 0.402042,-0.110588 0.138573,-0.02733 0.267031,-0.04099 0.38499,-0.04134 0.217292,-6.55e-4 0.402207,0.02778 0.555521,0.08527 0.155384,0.05748 0.28119,0.141754 0.376721,0.253215 0.0976,0.109388 0.167942,0.242827 0.211874,0.399975 0.046,0.157141 0.06968,0.335151 0.07028,0.533818 4.12e-4,0.136584 -0.0056,0.286576 -0.01757,0.450101 -0.0099,0.163518 -0.02171,0.335129 -0.03566,0.515215 -0.01395,0.178017 -0.02692,0.36251 -0.03876,0.552937 -0.0098,0.190421 -0.014,0.379604 -0.01344,0.567924 8.67e-4,0.298002 0.05623,0.522605 0.166398,0.673344 0.112199,0.148665 0.258173,0.222752 0.438216,0.222209 0.159348,-4.81e-4 0.337058,-0.06025 0.533301,-0.178801 l 0.09043,0.133326 c -0.138236,0.13907 -0.288901,0.244886 -0.452169,0.31781 -0.163269,0.07292 -0.334654,0.110045 -0.514697,0.110587 -0.134514,4.06e-4 -0.259147,-0.02199 -0.373104,-0.06718 -0.113957,-0.04518 -0.212027,-0.112279 -0.295073,-0.201021 -0.08305,-0.09081 -0.147846,-0.204618 -0.193786,-0.341065 -0.04594,-0.136447 -0.06922,-0.294864 -0.06976,-0.474906 -1.62e-4,-0.05381 6.88e-4,-0.107419 0.0026,-0.161231 0.004,-0.05382 0.01104,-0.110488 0.02119,-0.170532 h -0.0186 c -0.08845,0.178241 -0.191072,0.35446 -0.308508,0.52865 -0.115372,0.172114 -0.243129,0.326529 -0.383439,0.463538 -0.138249,0.134932 -0.287386,0.243853 -0.446485,0.327111 -0.02568,0.01395 -0.05294,0.01984 -0.07906,0.03152 l 5.17e-4,0.145728 5.208468,-0.0155 -0.0098,-3.248381 c -0.0914,0.164779 -0.1764,0.344181 -0.253731,0.542086 -0.08213,0.215473 -0.157218,0.442385 -0.224792,0.680578 -0.06551,0.236118 -0.12258,0.467261 -0.171566,0.692981 -0.04693,0.223645 -0.08583,0.434792 -0.116272,0.633553 -0.02838,0.196686 -0.04845,0.362059 -0.06046,0.496611 l -0.648539,0.08268 -0.04961,-0.0026 c 0.01596,-0.196648 0.03065,-0.411031 0.04444,-0.642854 0.01379,-0.231823 0.02654,-0.466842 0.03824,-0.704867 0.0117,-0.240094 0.02137,-0.477195 0.02894,-0.711068 0.0096,-0.235949 0.01714,-0.455015 0.02274,-0.657841 0.0077,-0.2049 0.01237,-0.388412 0.01395,-0.549837 0.0037,-0.161429 0.0055,-0.288763 0.0052,-0.381889 -2.32e-4,-0.07657 -0.0035,-0.142581 -0.0098,-0.198437 -0.0064,-0.05585 -0.02107,-0.102342 -0.04393,-0.139527 -0.02081,-0.03719 -0.05209,-0.06419 -0.09353,-0.08061 -0.04144,-0.0185 -0.09707,-0.0276 -0.167432,-0.02739 -0.03518,1.06e-4 -0.0718,0.0025 -0.109037,0.0067 -0.03724,0.0043 -0.07852,0.01072 -0.124023,0.01912 -0.0455,0.0084 -0.09712,0.01996 -0.15503,0.03462 -0.05583,0.01259 -0.120888,0.02818 -0.195337,0.04703 l -0.04754,-0.223242 c 0.343156,-0.125203 0.62157,-0.213242 0.834574,-0.26355 0.212998,-0.05238 0.356481,-0.07884 0.430982,-0.07906 0.136584,-4.12e-4 0.234301,0.03987 0.292488,0.120406 0.06025,0.07846 0.09048,0.196188 0.09095,0.353467 4.4e-5,0.01449 -0.0018,0.05727 -0.0057,0.12764 -0.0039,0.07037 -0.01015,0.162107 -0.01809,0.275953 -0.0059,0.111769 -0.01387,0.242158 -0.02377,0.39119 -0.0099,0.149032 -0.02169,0.309816 -0.03566,0.481625 -0.01191,0.169732 -0.02586,0.347517 -0.04186,0.533817 -0.016,0.184232 -0.03309,0.3687 -0.05116,0.552938 l 0.03101,0.0026 c 0.09811,-0.405913 0.209166,-0.783669 0.33228,-1.133781 0.125176,-0.352188 0.264666,-0.658107 0.419096,-0.917257 0.01903,-0.03151 0.04048,-0.05437 0.05994,-0.08423 l -0.02635,-8.721949 5.311821,-0.01602 z m -5.273063,12.899988 0.0021,0.722436 c 0.0081,-0.01463 0.01554,-0.0311 0.02377,-0.04548 0.100868,-0.178279 0.209994,-0.321464 0.327629,-0.429431 0.07223,-0.06644 0.151935,-0.117006 0.238745,-0.152446 0.08681,-0.03544 0.176626,-0.05346 0.269751,-0.05374 0.08692,-2.6e-4 0.168793,0.01621 0.245463,0.04909 0.07873,0.03081 0.161429,0.08234 0.248564,0.154513 l 0.0248,-5.17e-4 c 0.08671,-0.06649 0.149553,-0.141893 0.188619,-0.226859 0.04113,-0.08704 0.06178,-0.177143 0.0615,-0.270268 -2.2e-4,-0.07243 -0.01477,-0.138511 -0.04393,-0.198438 -0.02916,-0.06199 -0.06854,-0.114816 -0.118339,-0.15813 -0.0498,-0.04538 -0.108882,-0.08028 -0.17725,-0.104903 -0.06837,-0.02463 -0.142018,-0.03693 -0.220658,-0.03669 -0.223501,6.74e-4 -0.429146,0.07574 -0.617017,0.225309 -0.163216,0.12956 -0.313119,0.309831 -0.453719,0.52555 z m -5.197099,3.840592 -0.0015,-0.527616 c -0.04555,0.0099 -0.09069,0.01537 -0.134875,0.0155 -0.08278,2.53e-4 -0.154351,-0.01462 -0.214458,-0.04548 -0.05805,-0.03294 -0.106757,-0.07757 -0.146244,-0.133325 -0.03741,-0.05576 -0.06539,-0.119862 -0.08423,-0.192236 -0.01678,-0.07445 -0.02508,-0.151835 -0.02532,-0.232544 -4.27e-4,-0.142793 0.02301,-0.267933 0.07028,-0.375688 0.04727,-0.109825 0.111762,-0.204299 0.194303,-0.283187 0.08461,-0.08097 0.185029,-0.148418 0.300757,-0.202571 0.01142,-0.0053 0.02405,-0.0093 0.03566,-0.01447 l -10e-4,-0.312642 c -0.0096,0.0028 -0.01994,0.0044 -0.02945,0.0072 -0.194361,0.05646 -0.374208,0.12859 -0.539502,0.216007 -0.165301,0.08535 -0.307692,0.187087 -0.427364,0.305408 -0.117603,0.118315 -0.210176,0.251803 -0.278019,0.401009 -0.06577,0.1492 -0.09873,0.315015 -0.09819,0.497127 4.27e-4,0.140723 0.02388,0.270782 0.06976,0.390674 0.04795,0.117815 0.11333,0.22029 0.19637,0.306958 0.08511,0.08666 0.186782,0.154809 0.304891,0.204122 0.118109,0.04931 0.248398,0.07381 0.391191,0.07338 0.145407,-4.38e-4 0.283384,-0.0379 0.417028,-0.09767 z m -0.0067,-2.304252 c 0.185906,-0.05423 0.381498,-0.09575 0.588078,-0.121957 0.217206,-0.02963 0.438473,-0.0448 0.664042,-0.04548 0.01409,-0.130419 0.02516,-0.256665 0.03307,-0.378788 0.01,-0.122129 0.0144,-0.256662 0.01395,-0.403593 -4.93e-4,-0.163487 -0.02748,-0.305431 -0.08165,-0.425297 -0.05417,-0.119867 -0.124725,-0.217731 -0.211873,-0.294039 -0.08715,-0.07631 -0.185796,-0.133096 -0.295589,-0.170015 -0.109794,-0.03692 -0.219499,-0.0551 -0.329179,-0.05478 -0.146931,4.42e-4 -0.271277,0.0162 -0.372587,0.04754 -0.0051,0.0016 -0.0089,0.004 -0.01395,0.0057 z m -0.0057,-1.840715 -10e-4,-0.274918 c -0.0024,8.86e-4 -0.0048,0.0017 -0.0072,0.0026 -0.136441,0.04801 -0.268781,0.107535 -0.396875,0.178283 -0.128094,0.07075 -0.240967,0.150499 -0.337964,0.239779 -0.097,0.08928 -0.174924,0.187796 -0.234611,0.295589 -0.05762,0.107786 -0.08667,0.223101 -0.0863,0.345199 2.27e-4,0.0745 0.01323,0.141598 0.03824,0.201538 0.02708,0.05994 0.06235,0.110158 0.105937,0.151412 0.04565,0.04125 0.09857,0.07353 0.158646,0.09612 0.06215,0.0205 0.128076,0.0307 0.198438,0.03049 0.120028,-3.67e-4 0.239299,-0.03007 0.357084,-0.08837 l 0.0124,-0.03411 c -0.07064,-0.09498 -0.125227,-0.191717 -0.162781,-0.290939 -0.03549,-0.101297 -0.05293,-0.201939 -0.05323,-0.301273 -2.54e-4,-0.08485 0.01259,-0.163649 0.03927,-0.236161 0.02874,-0.07459 0.07398,-0.13876 0.135909,-0.192754 0.06075,-0.05127 0.139705,-0.09162 0.234094,-0.122473 z m 0.0067,2.153357 0.0041,1.463994 c 0.05046,-0.01099 0.101345,-0.02713 0.153479,-0.05013 0.0992,-0.04376 0.196491,-0.104012 0.291455,-0.180867 0.09703,-0.07686 0.188837,-0.168598 0.275436,-0.274402 0.08866,-0.107879 0.168247,-0.22495 0.238228,-0.3514 0.06998,-0.126448 0.127489,-0.259117 0.172599,-0.397908 0.04717,-0.140866 0.07742,-0.284524 0.09147,-0.431498 -0.153128,0.0046 -0.305283,0.01503 -0.456303,0.03204 -0.151026,0.01494 -0.294497,0.03934 -0.430982,0.07286 -0.121145,0.03021 -0.233548,0.07034 -0.339514,0.117305 z m -13.53044,-14.676623 -8.680607,0.02584 0.05064,16.855302 5.231205,-0.01602 -0.001,-0.417029 c -0.07788,-0.06884 -0.150202,-0.144024 -0.214457,-0.227893 -0.137139,-0.18377 -0.24209,-0.392688 -0.315226,-0.626318 -0.07107,-0.233636 -0.107268,-0.472556 -0.108004,-0.716752 -6.3e-4,-0.209015 0.02075,-0.421299 0.06356,-0.636654 0.04281,-0.215354 0.106446,-0.423258 0.190686,-0.624251 0.08424,-0.203062 0.187972,-0.39268 0.311609,-0.568958 0.01892,-0.02684 0.04121,-0.04963 0.06098,-0.07545 l -0.0088,-2.947624 0.45992,-0.001 c 0.47522,-0.0014 0.90108,0.127584 1.277442,0.387056 0.276534,0.198454 0.59212,0.630267 0.946712,1.296045 l 1.771985,3.257165 c 0.0044,-0.154197 0.01048,-0.304259 0.01292,-0.464571 0.01071,-0.569137 0.01687,-1.165086 0.01912,-1.788004 -0.194522,0.0027 -0.3745,0.01035 -0.540018,0.02325 -0.16345,0.01291 -0.300752,0.03993 -0.412378,0.08165 -0.0083,-0.0186 -0.01285,-0.03822 -0.01292,-0.05891 -1.5e-4,-0.04967 0.02282,-0.09593 0.06821,-0.139527 0.04747,-0.0436 0.113166,-0.08136 0.19792,-0.112654 0.08682,-0.03337 0.19061,-0.06059 0.310576,-0.08165 0.119966,-0.02105 0.253063,-0.03468 0.399975,-0.04134 0.0077,-0.194554 0.01758,-0.380097 0.02946,-0.556038 0.01189,-0.178011 0.02789,-0.352689 0.04806,-0.524516 0.02017,-0.173897 0.04441,-0.34801 0.07286,-0.521932 0.03051,-0.173928 0.06717,-0.354155 0.11007,-0.540536 0.05515,-0.242295 0.127086,-0.459429 0.215491,-0.652156 0.0884,-0.194797 0.188422,-0.366911 0.299723,-0.516248 0.113365,-0.151413 0.234784,-0.281119 0.364836,-0.389123 0.132121,-0.108012 0.267729,-0.196391 0.406177,-0.2651 0.138441,-0.07078 0.278981,-0.122008 0.421679,-0.15348 0.142694,-0.03354 0.281996,-0.05075 0.41858,-0.05116 0.198667,-5.99e-4 0.375862,0.02573 0.531233,0.07906 0.157434,0.05126 0.289004,0.120621 0.394808,0.207222 0.04251,0.03331 0.07817,0.06959 0.112655,0.106454 0.602652,-0.404697 1.089811,-0.906391 1.447974,-1.516704 0.396496,-0.683371 0.593461,-1.492649 0.590661,-2.427758 -0.0032,-1.073077 -0.266683,-1.980914 -0.790133,-2.722832 C 49.211991,83.610666 48.524686,83.099346 47.673057,82.825976 46.82143,82.55259 45.590908,82.41855 43.981293,82.423417 Z m 4.505668,8.604126 c -0.06457,0.04336 -0.123823,0.09129 -0.191203,0.132291 -0.101979,0.06196 -0.214946,0.12113 -0.334346,0.178284 0.02325,0.05795 0.03905,0.121159 0.03927,0.195337 2e-4,0.06623 -0.01,0.13164 -0.03049,0.195854 -0.01843,0.06214 -0.04723,0.134661 -0.0863,0.217557 l 0.0124,0.03101 c 0.09947,0.04316 0.197808,0.06437 0.295073,0.06408 0.07036,-2.13e-4 0.136934,-0.01167 0.198954,-0.03462 0.06409,-0.02296 0.118414,-0.05511 0.163814,-0.09664 0.04746,-0.0436 0.0849,-0.09648 0.111621,-0.158647 0.02878,-0.06217 0.04313,-0.133748 0.04289,-0.214457 -3.34e-4,-0.11175 -0.03009,-0.221225 -0.08837,-0.328662 -0.03405,-0.0651 -0.0803,-0.124696 -0.133325,-0.181384 z m -0.525549,0.310575 c -0.0079,-0.01965 -0.01324,-0.04112 -0.02377,-0.05891 -0.04161,-0.07231 -0.09539,-0.130889 -0.161747,-0.176217 -0.06429,-0.04533 -0.137814,-0.07826 -0.220658,-0.0987 -0.08077,-0.02045 -0.160622,-0.03073 -0.239262,-0.03049 -0.165557,4.99e-4 -0.310066,0.02592 -0.434082,0.07596 -0.124018,0.05004 -0.232698,0.118472 -0.325562,0.205672 -0.09079,0.08719 -0.168223,0.188808 -0.232027,0.304891 -0.06175,0.114007 -0.114037,0.236396 -0.157096,0.366902 -0.04307,0.130507 -0.07791,0.265889 -0.104387,0.406694 -0.02648,0.138734 -0.04895,0.274708 -0.06718,0.40721 -0.02429,0.182187 -0.04543,0.354772 -0.06356,0.518315 -0.01607,0.161467 -0.03097,0.324295 -0.04496,0.487825 -0.01193,0.161456 -0.02171,0.328953 -0.02946,0.502812 -0.0078,0.171789 -0.01455,0.357866 -0.02015,0.558622 0.335283,0.0093 0.653855,0.01692 0.956014,0.02222 0.304229,0.0053 0.594979,0.0096 0.872298,0.01292 0.03417,-0.333288 0.06855,-0.649121 0.102836,-0.947229 0.03427,-0.300177 0.07093,-0.566504 0.109555,-0.798401 0.0081,-0.05383 0.0254,-0.09806 0.05219,-0.133325 0.02887,-0.03527 0.06202,-0.06343 0.09922,-0.08423 0.03926,-0.02081 0.08059,-0.03552 0.124024,-0.04393 0.0256,-0.005 0.05004,-0.0052 0.07493,-0.0072 -0.15721,-0.170848 -0.294206,-0.305184 -0.399976,-0.380855 -0.284222,-0.206096 -0.737098,-0.41142 -1.358573,-0.6165 0.59583,-0.137574 1.091223,-0.302481 1.491382,-0.494027 z m 0.267167,1.491382 c 0.09974,0.108389 0.214422,0.243978 0.334863,0.390674 0.01746,-0.103227 0.03039,-0.212118 0.04961,-0.313159 -0.04767,-0.02675 -0.09808,-0.04717 -0.151928,-0.0615 -0.05178,-0.01433 -0.112059,-0.02139 -0.180351,-0.02119 -0.017,5e-5 -0.03485,0.0037 -0.05219,0.0052 z m 0.334863,0.390674 c -0.03621,0.214089 -0.07367,0.426086 -0.102319,0.649572 -0.04246,0.331244 -0.07896,0.657377 -0.109038,0.978235 0.312488,-9.33e-4 0.584734,-0.006 0.816488,-0.01499 0.182685,-0.007 0.317682,-0.02122 0.448551,-0.03566 l -0.219108,-0.421679 c -0.123376,-0.244905 -0.369698,-0.592747 -0.738973,-1.043864 -0.03609,-0.04503 -0.0612,-0.06972 -0.0956,-0.111621 z m 1.053682,1.577164 0.132292,0.255282 c 0.01472,-0.02584 0.02491,-0.05471 0.02481,-0.09095 -6.7e-5,-0.02277 -0.0036,-0.04856 -0.0098,-0.07752 -0.0042,-0.03103 -0.01126,-0.06355 -0.0217,-0.09663 -0.03257,0.0046 -0.08894,0.0058 -0.125574,0.0098 z m 0.132292,0.255282 c -0.008,0.014 -0.01557,0.02833 -0.0279,0.03927 -0.03509,0.02908 -0.09194,0.05091 -0.170532,0.06563 -0.0786,0.01473 -0.181766,0.02442 -0.310059,0.02894 -0.126231,0.0025 -0.282455,0.0041 -0.468705,0.0047 l -0.202055,5.17e-4 -0.120923,5.16e-4 c -0.04139,-0.0019 -0.08572,-0.0038 -0.133325,-0.0057 -0.02004,0.217355 -0.03729,0.427085 -0.05116,0.629936 -0.01388,0.20078 -0.02533,0.391467 -0.03514,0.571541 -0.0077,0.180068 -0.01338,0.346559 -0.01705,0.499711 -0.0037,0.153152 -0.0055,0.287703 -0.0052,0.403593 6.67e-4,0.221431 0.01236,0.418963 0.03566,0.592729 0.02329,0.173766 0.06416,0.32146 0.122473,0.443384 0.05831,0.119853 0.138182,0.212104 0.239779,0.275952 0.101596,0.06385 0.230297,0.09555 0.385506,0.09508 0.111751,-3.36e-4 0.235605,-0.02073 0.37207,-0.06046 0.138536,-0.03974 0.295648,-0.103242 0.471289,-0.190686 0.05604,0.05571 0.08863,0.123955 0.09715,0.204639 -0.128051,0.08523 -0.25741,0.163339 -0.387573,0.234094 -0.13017,0.06868 -0.258386,0.127719 -0.384473,0.177767 -0.126087,0.05005 -0.247992,0.08901 -0.365869,0.116272 -0.117878,0.02725 -0.229321,0.04102 -0.334863,0.04134 -0.138653,4.17e-4 -0.266361,-0.0251 -0.382406,-0.07648 -0.11397,-0.04932 -0.213455,-0.138079 -0.29869,-0.266134 -0.08317,-0.130126 -0.148627,-0.304781 -0.196887,-0.523999 -0.04619,-0.219225 -0.06978,-0.496222 -0.0708,-0.831474 -0.0011,-0.374571 0.0079,-0.760671 0.02739,-1.158069 0.02157,-0.397404 0.05127,-0.79369 0.0894,-1.189074 -0.149014,-0.0037 -0.302112,-0.0077 -0.459403,-0.01137 -0.155221,-0.0037 -0.310383,-0.0072 -0.465605,-0.01085 -0.155222,-0.0037 -0.307296,-0.0062 -0.456303,-0.0078 -0.146944,-0.0037 -0.285619,-0.0056 -0.415995,-0.0052 -0.0075,0.246289 -0.01688,0.514324 -0.02842,0.804085 -0.01155,0.289762 -0.02727,0.589723 -0.04703,0.900203 -0.01769,0.310475 -0.04072,0.626376 -0.06873,0.947229 -0.02035,0.231556 -0.04898,0.455093 -0.077,0.679029 l 0.435632,0.800468 5.886979,-0.01757 -0.190169,-0.365869 c -0.07109,0.110217 -0.140563,0.215901 -0.205672,0.307991 l -0.338481,-0.03617 c -0.05282,-0.35993 -0.114017,-0.729439 -0.183451,-1.107943 -0.05586,-0.313872 -0.119726,-0.619577 -0.185518,-0.923458 z m 1.077971,2.076359 0.913122,1.759583 c 0.01216,-0.01885 0.02281,-0.03333 0.03514,-0.05271 0.08652,-0.132708 0.172936,-0.271905 0.259416,-0.417029 0.08854,-0.147199 0.177091,-0.29721 0.265617,-0.450619 0.08852,-0.155477 0.17296,-0.309123 0.253214,-0.460437 0.08232,-0.153389 0.15951,-0.301406 0.231511,-0.444417 0.072,-0.145081 0.135709,-0.280806 0.191202,-0.40721 0.10062,0.426008 0.192935,0.849837 0.276986,1.271757 0.08404,0.419849 0.155841,0.826542 0.214974,1.219564 l 0.332279,0.03617 c 0.113346,-0.157622 0.241792,-0.341419 0.386023,-0.550871 0.146296,-0.211527 0.294582,-0.436452 0.444934,-0.674894 0.152424,-0.238449 0.300834,-0.483996 0.444935,-0.736906 0.144095,-0.25498 0.272422,-0.50477 0.385506,-0.749308 0.115153,-0.244545 0.206777,-0.477545 0.274402,-0.699182 0.06969,-0.223713 0.104399,-0.423543 0.103869,-0.599447 -6.98e-4,-0.231779 -0.06767,-0.412627 -0.200504,-0.542602 -0.13077,-0.129954 -0.333511,-0.194587 -0.608749,-0.193787 -0.03311,6.7e-5 -0.06766,9.01e-4 -0.102836,0.0031 -0.03517,0.0021 -0.07128,0.0056 -0.10852,0.0098 l -0.03359,0.07441 c 0.07883,0.06185 0.1439,0.129264 0.195854,0.201538 0.05196,0.07228 0.09274,0.148822 0.121956,0.229444 0.03129,0.08062 0.05294,0.165298 0.06563,0.254248 0.01268,0.08688 0.01936,0.176625 0.01964,0.269751 6.73e-4,0.223501 -0.03165,0.453246 -0.09715,0.689363 -0.06551,0.236117 -0.153041,0.474298 -0.261999,0.714685 -0.106895,0.238312 -0.230003,0.477822 -0.370003,0.718303 -0.13793,0.240474 -0.279061,0.475754 -0.42323,0.7059 -0.04839,-0.262677 -0.102948,-0.535738 -0.163815,-0.819072 -0.06087,-0.285404 -0.126177,-0.571414 -0.195336,-0.858862 -0.0671,-0.289524 -0.136013,-0.575045 -0.207223,-0.856279 -0.06915,-0.283309 -0.137129,-0.553357 -0.204122,-0.809769 -0.06011,-0.03087 -0.125442,-0.05446 -0.195854,-0.0708 -0.06835,-0.01842 -0.135834,-0.02759 -0.202054,-0.02739 -0.09933,3e-4 -0.170594,0.01946 -0.213941,0.05684 -0.04128,0.0353 -0.06169,0.0857 -0.0615,0.151928 1e-4,0.03312 0.0076,0.07802 0.02222,0.133842 0.01676,0.06617 0.03335,0.13639 0.05013,0.21084 0.01677,0.07445 0.03128,0.14878 0.04392,0.223242 0.01471,0.07446 0.02663,0.148766 0.03514,0.223243 0.0085,0.07241 0.01273,0.141002 0.01292,0.205155 1.34e-4,0.0476 -0.0027,0.09604 -0.0088,0.145728 -0.004,0.04761 -0.01201,0.09654 -0.02429,0.146244 -0.01841,0.07249 -0.04833,0.160468 -0.0894,0.264066 -0.04108,0.103598 -0.08918,0.215183 -0.144694,0.33538 -0.05551,0.120197 -0.116578,0.244598 -0.182418,0.373104 -0.06377,0.12643 -0.128443,0.249776 -0.194303,0.370004 -0.06379,0.120221 -0.125302,0.232242 -0.185002,0.335896 -0.0597,0.103654 -0.1123,0.190984 -0.157613,0.261483 -0.0296,-0.208928 -0.06439,-0.425156 -0.104386,-0.648539 -0.04,-0.223382 -0.08299,-0.446879 -0.129191,-0.670243 -0.0462,-0.223364 -0.09489,-0.443799 -0.145211,-0.660942 -0.04825,-0.217149 -0.09806,-0.422643 -0.150379,-0.617017 -0.05025,-0.194379 -0.100735,-0.373581 -0.150895,-0.536918 -0.0481,-0.165412 -0.09416,-0.307983 -0.137976,-0.427881 -0.0684,-0.03497 -0.135788,-0.05961 -0.202055,-0.0739 -0.0642,-0.01429 -0.133238,-0.02141 -0.207739,-0.02119 -0.08692,2.6e-4 -0.162289,0.01734 -0.226343,0.05064 -0.06406,0.0333 -0.09636,0.09034 -0.09612,0.171049 6.7e-5,0.01449 0.0025,0.031 0.0067,0.04961 0.0042,0.01862 0.01127,0.04237 0.0217,0.07131 0.09807,0.268736 0.192164,0.569357 0.282154,0.902271 0.09206,0.332908 0.178122,0.682459 0.257865,1.048515 0.01397,0.06216 0.02469,0.127588 0.03824,0.190169 z m -5.21932,1.342554 -0.590145,-1.084689 c -0.01128,0.391239 -0.02647,0.770014 -0.05064,1.121896 -0.03164,0.488491 -0.07916,0.932104 -0.14211,1.331701 -0.06295,0.399603 -0.151095,0.740363 -0.264067,1.022163 -0.110896,0.28384 -0.249865,0.50264 -0.417028,0.65629 -0.16509,0.15576 -0.366628,0.23394 -0.604615,0.23461 -0.09106,2.7e-4 -0.180695,-0.0106 -0.269751,-0.0331 -0.08906,-0.0225 -0.175454,-0.0586 -0.258382,-0.10801 -0.08292,-0.0473 -0.160399,-0.10916 -0.233061,-0.18552 -0.07265,-0.0743 -0.139131,-0.1649 -0.199471,-0.27233 -0.06415,2e-4 -0.12351,0.0117 -0.17725,0.0346 -0.0558,0.0249 -0.102903,0.0561 -0.14211,0.0935 -0.04128,0.0374 -0.0735,0.08 -0.09612,0.12764 -0.02262,0.0497 -0.03374,0.0992 -0.03359,0.14883 2.74e-4,0.089 0.02967,0.17268 0.08785,0.25114 0.05612,0.0805 0.133547,0.15059 0.233061,0.21033 0.09951,0.0597 0.21781,0.10731 0.3545,0.14211 0.134621,0.0348 0.281452,0.0516 0.4408,0.0512 0.184182,-6e-4 0.369458,-0.032 0.555522,-0.0946 0.184,-0.0606 0.361455,-0.16365 0.532784,-0.30903 0.173404,-0.14332 0.336437,-0.33412 0.488859,-0.57257 0.152428,-0.23638 0.289279,-0.53201 0.410311,-0.88625 0.07589,-0.2258 0.142357,-0.476998 0.199471,-0.754479 0.05712,-0.275412 0.105777,-0.56538 0.146244,-0.869714 0.01164,-0.08328 0.01839,-0.171441 0.02894,-0.255798 z m -5.037419,-3.076298 0.01085,3.476273 c 0.09084,0.08029 0.189833,0.151518 0.299207,0.211357 0.205213,0.111135 0.439977,0.166165 0.704866,0.165365 0.235918,-7.12e-4 0.454234,-0.03961 0.654741,-0.116789 0.200506,-0.07717 0.382616,-0.182289 0.545703,-0.315226 0.163088,-0.132938 0.306311,-0.287777 0.429948,-0.464055 0.1257,-0.178353 0.230467,-0.367964 0.314709,-0.568957 0.0863,-0.203069 0.150974,-0.411998 0.193787,-0.627352 0.04281,-0.215355 0.06367,-0.427639 0.06305,-0.636654 -7.36e-4,-0.244196 -0.03745,-0.483122 -0.110587,-0.716752 -0.07107,-0.233636 -0.176025,-0.441524 -0.315227,-0.623218 -0.139208,-0.183764 -0.311551,-0.331217 -0.516764,-0.44235 -0.203143,-0.111141 -0.437392,-0.166165 -0.702283,-0.165365 -0.235917,7.11e-4 -0.453718,0.03961 -0.654223,0.116789 -0.200507,0.07717 -0.382616,0.182289 -0.545703,0.315226 -0.138541,0.112929 -0.26051,0.246005 -0.372071,0.391708 z m 2.259294,-9.565308 c 0.95044,-0.0029 1.598789,0.140758 1.944584,0.430982 0.345769,0.290224 0.519232,0.707399 0.520898,1.251603 0.0011,0.367911 -0.108786,0.693966 -0.330212,0.978235 -0.21376,0.284245 -0.492965,0.461727 -0.837675,0.53175 -0.681708,0.155335 -1.141633,0.233361 -1.379244,0.234094 l -2.195732,0.0062 -0.01033,-3.426148 z M 37.76047,91.79078 c 0.09106,-2.75e-4 0.188461,0.006 0.291972,0.01809 0.103504,0.01003 0.207034,0.02612 0.310575,0.04858 0.103541,0.02245 0.201847,0.05037 0.295072,0.0832 0.09529,0.03075 0.179109,0.06632 0.251665,0.107487 0.07256,0.04117 0.131058,0.08688 0.174666,0.136426 0.04361,0.04953 0.06546,0.102253 0.06563,0.15813 1.81e-4,0.06001 -8.03e-4,0.135279 -0.0026,0.226343 -0.0018,0.08899 -0.0045,0.191573 -0.0083,0.307474 -0.0017,0.113827 -0.0056,0.239086 -0.01137,0.375688 -0.0058,0.134533 -0.01284,0.277302 -0.02067,0.428398 l -0.31316,-0.01447 c 0.006,-0.07452 0.0085,-0.146164 0.0083,-0.214457 -6.18e-4,-0.204876 -0.03201,-0.384997 -0.09457,-0.540019 -0.06049,-0.157097 -0.146835,-0.287021 -0.258899,-0.390157 -0.109999,-0.105212 -0.243575,-0.183349 -0.401009,-0.234611 -0.155371,-0.05334 -0.328442,-0.07964 -0.518832,-0.07906 -0.190389,5.74e-4 -0.367937,0.03302 -0.5333,0.09767 -0.1633,0.06258 -0.305095,0.150922 -0.424781,0.2651 -0.119692,0.112113 -0.213295,0.246111 -0.281119,0.401526 -0.06782,0.155415 -0.101331,0.325863 -0.100769,0.512113 4.55e-4,0.15107 0.02025,0.288846 0.05994,0.412895 0.03969,0.121979 0.09418,0.234697 0.162781,0.337964 0.07067,0.10326 0.15363,0.197076 0.24908,0.281636 0.09545,0.08456 0.199111,0.165097 0.311092,0.241329 0.111976,0.07417 0.230128,0.14499 0.354501,0.212907 0.124373,0.06792 0.249762,0.135694 0.376204,0.203605 0.130582,0.0679 0.260082,0.138279 0.388607,0.210323 0.130594,0.07204 0.254896,0.149088 0.373104,0.231511 0.118202,0.08035 0.226968,0.169168 0.326595,0.266134 0.10169,0.09489 0.189213,0.201103 0.261999,0.318843 0.07485,0.115666 0.13337,0.243875 0.175184,0.384473 0.04389,0.140592 0.06563,0.296424 0.06614,0.468188 8.67e-4,0.283515 -0.03725,0.535393 -0.115238,0.754993 -0.07591,0.219593 -0.179142,0.411279 -0.309025,0.575159 -0.129889,0.16181 -0.279192,0.298565 -0.448552,0.410827 -0.167288,0.112256 -0.342093,0.202978 -0.523999,0.271818 -0.181906,0.06884 -0.363678,0.118274 -0.545703,0.147795 -0.182019,0.03159 -0.350703,0.04759 -0.505912,0.04806 -0.204875,6.17e-4 -0.397612,-0.01343 -0.577743,-0.04186 -0.180123,-0.02636 -0.338185,-0.06237 -0.474906,-0.107487 -0.134652,-0.04512 -0.241579,-0.09629 -0.320394,-0.153996 -0.07675,-0.05978 -0.115051,-0.120847 -0.115238,-0.182934 -4.18e-4,-0.138653 0.0028,-0.337123 0.01033,-0.59583 0.0096,-0.258713 0.02431,-0.566415 0.04393,-0.922424 l 0.313676,0.01499 c -0.0061,0.04969 -0.01048,0.09709 -0.0124,0.142627 -0.0019,0.04553 -0.0027,0.0909 -0.0026,0.136426 7.33e-4,0.235918 0.03252,0.436661 0.09508,0.60203 0.06465,0.163294 0.155102,0.296852 0.271302,0.399976 0.11827,0.103117 0.259082,0.178205 0.422713,0.225309 0.165694,0.04503 0.351162,0.06677 0.556038,0.06615 0.204876,-6.17e-4 0.399414,-0.02884 0.583427,-0.08527 0.184007,-0.0585 0.344864,-0.145178 0.483175,-0.259416 0.14038,-0.114244 0.251556,-0.254838 0.33383,-0.422713 0.08227,-0.169945 0.12314,-0.365612 0.122473,-0.587044 -4.24e-4,-0.140723 -0.02028,-0.269218 -0.05994,-0.38499 -0.03761,-0.117846 -0.09058,-0.225402 -0.159163,-0.32246 -0.06652,-0.09913 -0.146402,-0.189838 -0.239779,-0.272335 -0.0913,-0.0825 -0.19189,-0.159927 -0.30179,-0.232027 -0.107836,-0.07418 -0.22187,-0.143946 -0.342098,-0.209807 -0.120234,-0.06793 -0.24253,-0.136204 -0.366903,-0.204122 -0.130589,-0.06997 -0.261625,-0.1419 -0.392224,-0.216007 -0.128531,-0.07411 -0.251789,-0.15322 -0.370003,-0.237712 -0.118215,-0.08449 -0.227999,-0.175376 -0.329696,-0.272335 -0.101703,-0.09903 -0.190238,-0.208342 -0.2651,-0.328145 -0.07279,-0.11981 -0.130771,-0.252144 -0.174666,-0.396875 -0.04182,-0.144737 -0.06303,-0.305204 -0.06356,-0.481107 -6.61e-4,-0.219363 0.02634,-0.423361 0.08165,-0.611849 0.0553,-0.190558 0.13265,-0.364355 0.231511,-0.521932 0.100923,-0.159655 0.220355,-0.301746 0.358634,-0.426331 0.140349,-0.124591 0.29307,-0.229363 0.45837,-0.314709 0.167364,-0.08742 0.345112,-0.153378 0.533301,-0.197404 0.190252,-0.0461 0.384759,-0.06968 0.583427,-0.07028 z m 28.843201,2.71663 c -0.231779,6.98e-4 -0.448536,0.03755 -0.651124,0.110587 -0.200519,0.07304 -0.385696,0.174007 -0.555004,0.302824 -0.167246,0.126742 -0.31663,0.276902 -0.448552,0.451135 -0.131927,0.172165 -0.24441,0.358638 -0.33693,0.559656 -0.09045,0.201011 -0.16029,0.412488 -0.20929,0.63407 -0.04693,0.221574 -0.06991,0.443127 -0.06925,0.664559 8.17e-4,0.271098 0.04311,0.525523 0.126607,0.763261 0.08556,0.235662 0.202902,0.441045 0.352433,0.6165 0.149531,0.175455 0.328117,0.313665 0.535368,0.414445 0.207251,0.100764 0.434828,0.150595 0.683163,0.149861 0.144862,-4.4e-4 0.291918,-0.02018 0.4408,-0.05994 0.148888,-0.0377 0.294627,-0.09611 0.437182,-0.175183 0.144619,-0.08115 0.282872,-0.180848 0.414962,-0.299207 0.134153,-0.120433 0.258735,-0.261463 0.374137,-0.42323 0.0062,-0.0083 0.0093,-0.01704 0.0093,-0.02532 -4e-5,-0.01449 -0.0061,-0.02896 -0.0186,-0.04341 -0.01247,-0.01651 -0.02681,-0.03052 -0.04341,-0.04289 -0.0166,-0.01443 -0.0356,-0.02692 -0.05633,-0.03721 -0.01865,-0.0124 -0.03407,-0.02177 -0.04651,-0.0279 -0.200113,0.207551 -0.398478,0.35845 -0.594795,0.452168 -0.194255,0.09164 -0.384257,0.137415 -0.570508,0.137976 -0.184182,5.56e-4 -0.356121,-0.04224 -0.515731,-0.128674 -0.159609,-0.08644 -0.298602,-0.206881 -0.417029,-0.361735 -0.118432,-0.156923 -0.212166,-0.345151 -0.28112,-0.564307 -0.06688,-0.219163 -0.100485,-0.461163 -0.101285,-0.726053 l -5.17e-4,-0.05271 c 0.38068,-0.03426 0.73466,-0.08524 1.061434,-0.152446 0.328837,-0.06928 0.613966,-0.158823 0.855761,-0.269234 0.241796,-0.110411 0.43078,-0.24487 0.566891,-0.402559 0.138179,-0.157697 0.206825,-0.341855 0.206189,-0.552938 -4.4e-4,-0.144863 -0.03162,-0.273941 -0.09405,-0.387574 -0.06243,-0.113633 -0.146409,-0.209002 -0.252181,-0.285253 -0.10371,-0.07833 -0.225024,-0.137834 -0.363802,-0.178801 -0.138779,-0.04097 -0.285077,-0.06092 -0.438216,-0.06046 z m -0.293523,0.363802 c 0.09106,-2.74e-4 0.17602,0.01725 0.254765,0.05219 0.07875,0.03494 0.145995,0.08329 0.202055,0.145211 0.05813,0.05984 0.103072,0.131255 0.134359,0.21394 0.03336,0.08268 0.04984,0.171455 0.05013,0.266651 4.31e-4,0.142792 -0.04158,0.269883 -0.126091,0.381888 -0.08452,0.109938 -0.207279,0.205609 -0.368453,0.286805 -0.159111,0.07911 -0.355419,0.144957 -0.589111,0.197404 -0.23163,0.05036 -0.494265,0.08642 -0.788065,0.108003 0.01205,-0.122136 0.03239,-0.247294 0.06098,-0.375687 0.02859,-0.128394 0.06543,-0.25397 0.110587,-0.376205 0.04724,-0.122241 0.103606,-0.23687 0.169499,-0.344682 0.06589,-0.10988 0.142253,-0.205316 0.228927,-0.286287 0.08667,-0.08303 0.184501,-0.148954 0.294038,-0.196887 0.109538,-0.04793 0.231873,-0.07194 0.366386,-0.07235 z m -24.504447,0.139009 c 0.138654,-4.2e-4 0.264819,0.02405 0.378788,0.07338 0.11604,0.04932 0.219775,0.11748 0.311092,0.204122 0.09338,0.08457 0.173716,0.185581 0.240296,0.30334 0.06864,0.115684 0.125632,0.240794 0.171565,0.375171 0.04592,0.132309 0.07964,0.27068 0.10077,0.415479 0.0232,0.142724 0.03471,0.285606 0.03514,0.428397 3.73e-4,0.122098 -0.0061,0.255587 -0.02015,0.400493 -0.01197,0.144899 -0.03451,0.291699 -0.06718,0.4408 -0.03267,0.14703 -0.07684,0.290092 -0.132291,0.428914 -0.05339,0.138815 -0.122183,0.262136 -0.206706,0.370003 -0.08245,0.107867 -0.181449,0.195433 -0.29714,0.262 -0.113625,0.0645 -0.245804,0.0967 -0.396875,0.09715 -0.138653,4.2e-4 -0.266365,-0.02406 -0.382405,-0.07338 -0.113969,-0.04932 -0.217704,-0.117485 -0.311092,-0.204122 -0.09132,-0.08664 -0.171138,-0.187657 -0.239779,-0.30334 -0.06658,-0.11776 -0.123049,-0.243895 -0.168982,-0.378272 -0.04593,-0.134377 -0.08015,-0.273786 -0.103353,-0.418579 -0.02113,-0.1448 -0.03213,-0.287674 -0.03256,-0.428398 -3.6e-4,-0.120028 0.0056,-0.252492 0.01757,-0.397391 0.01404,-0.146976 0.03761,-0.293769 0.07028,-0.4408 0.03267,-0.147032 0.07529,-0.2901 0.128674,-0.428915 0.05546,-0.138822 0.124769,-0.262142 0.207223,-0.370003 0.08452,-0.10787 0.183513,-0.193889 0.297139,-0.258382 0.115697,-0.0645 0.248906,-0.09721 0.399976,-0.09767 z" />
      <path
         style="font-size:12.7148px;font-family:Gabriola;-inkscape-font-specification:Gabriola;fill:#beb7c8;stroke-width:1.05957"
         d="m 35.753581,97.390083 q -0.0091,0.0745 -0.01199,0.14283 -0.0029,0.0683 -0.0027,0.13659 0.0011,0.35388 0.09494,0.60194 0.09697,0.24494 0.27127,0.39962 0.177406,0.15468 0.422852,0.22534 0.248541,0.0675 0.555856,0.0666 0.307314,-9.3e-4 0.583334,-0.0856 0.27601,-0.0877 0.483476,-0.25911 0.21057,-0.17137 0.33398,-0.42318 0.1234,-0.25492 0.122399,-0.58707 -6.36e-4,-0.21108 -0.06014,-0.38474 -0.05641,-0.17677 -0.159287,-0.32235 -0.09978,-0.14871 -0.239845,-0.27245 -0.136958,-0.12376 -0.301808,-0.23191 -0.161754,-0.11126 -0.342097,-0.21005 -0.18035,-0.1019 -0.36691,-0.20378 -0.195883,-0.10495 -0.391782,-0.21611 -0.192797,-0.11117 -0.370119,-0.23791 -0.177322,-0.12674 -0.329867,-0.27218 -0.152554,-0.14854 -0.264847,-0.32824 -0.109189,-0.17972 -0.175032,-0.39682 -0.06273,-0.2171 -0.06353,-0.48096 -9.91e-4,-0.32904 0.08197,-0.61178 0.08295,-0.28583 0.231242,-0.5222 0.151385,-0.23948 0.358804,-0.42636 0.210524,-0.18689 0.458475,-0.31491 0.251046,-0.13113 0.53333,-0.19717 0.285379,-0.0691 0.583381,-0.07 0.136584,-4.1e-4 0.29185,0.0177 0.155256,0.0151 0.310568,0.0487 0.155312,0.0337 0.29515,0.0829 0.142933,0.0461 0.251766,0.10789 0.108834,0.0618 0.174246,0.13606 0.06541,0.0743 0.06567,0.15812 2.71e-4,0.09 -0.0024,0.22661 -0.0027,0.13349 -0.0084,0.30734 -0.0026,0.17074 -0.01129,0.37565 -0.0087,0.2018 -0.02044,0.42844 l -0.31357,-0.0146 q 0.009,-0.11178 0.0087,-0.21422 -9.26e-4,-0.30731 -0.09476,-0.53984 -0.09073,-0.23565 -0.258827,-0.39035 -0.164998,-0.15782 -0.40115,-0.23471 -0.233057,-0.08 -0.518642,-0.0791 -0.285585,8.6e-4 -0.53363,0.0978 -0.244949,0.0939 -0.424478,0.26513 -0.179538,0.16817 -0.281274,0.40129 -0.101737,0.23313 -0.100895,0.5125 6.83e-4,0.22661 0.06022,0.41268 0.05953,0.18297 0.162437,0.33787 0.10601,0.15489 0.249186,0.28173 0.143177,0.12685 0.311149,0.24119 0.167963,0.11125 0.354522,0.21313 0.18656,0.10187 0.376224,0.20374 0.195873,0.10185 0.38866,0.20992 0.195891,0.10805 0.373203,0.23169 0.177304,0.12053 0.326745,0.26598 0.152535,0.14233 0.261715,0.31894 0.112274,0.1735 0.174994,0.3844 0.06583,0.21088 0.0666,0.46853 0.0013,0.42527 -0.115686,0.75467 -0.113863,0.32939 -0.308688,0.57521 -0.194833,0.24272 -0.448872,0.41111 -0.250933,0.16839 -0.523792,0.27165 -0.27286,0.10326 -0.545897,0.14754 -0.273029,0.0474 -0.505843,0.0481 -0.307313,9.3e-4 -0.577509,-0.0417 -0.270185,-0.0395 -0.475267,-0.10721 -0.201978,-0.0677 -0.3202,-0.15425 -0.115125,-0.0897 -0.115406,-0.1828 -6.27e-4,-0.20798 0.01062,-0.59604 0.01435,-0.38807 0.04378,-0.92209 z m 4.218709,0.0276 q -9.45e-4,-0.31352 0.06327,-0.63655 0.06422,-0.32303 0.19058,-0.62452 0.126354,-0.3046 0.31181,-0.56901 0.188551,-0.26754 0.433183,-0.46694 0.244632,-0.19941 0.545392,-0.31517 0.300759,-0.11576 0.654636,-0.11683 0.397336,-0.001 0.702051,0.16551 0.30782,0.1667 0.516633,0.44235 0.208803,0.27254 0.315403,0.62299 0.109703,0.35045 0.110807,0.71674 9.45e-4,0.31353 -0.06327,0.63656 -0.06422,0.32303 -0.193674,0.62763 -0.126364,0.30149 -0.314915,0.56902 -0.185456,0.26442 -0.430088,0.46383 -0.244631,0.1994 -0.545391,0.31516 -0.30076,0.11577 -0.654637,0.11683 -0.397335,10e-4 -0.705155,-0.1655 -0.304715,-0.16671 -0.513519,-0.43925 -0.205709,-0.27566 -0.315413,-0.6261 -0.106599,-0.35046 -0.107703,-0.71675 z m 0.741012,-0.29713 q 6.36e-4,0.21108 0.03233,0.42828 0.0348,0.21719 0.1037,0.41876 0.0689,0.20156 0.168768,0.3782 0.102962,0.17353 0.239939,0.30349 0.140082,0.12996 0.311035,0.20394 0.17406,0.074 0.38204,0.0734 0.226606,-6.8e-4 0.397045,-0.0974 0.173536,-0.0999 0.297217,-0.26165 0.126785,-0.1618 0.206867,-0.37002 0.08318,-0.20823 0.132188,-0.42878 0.049,-0.22365 0.06696,-0.441 0.02108,-0.21736 0.02052,-0.40051 -6.46e-4,-0.21418 -0.03544,-0.42827 -0.0317,-0.2172 -0.100583,-0.41566 -0.0689,-0.20157 -0.171862,-0.37509 -0.09987,-0.17664 -0.23994,-0.30349 -0.136976,-0.12997 -0.311036,-0.20394 -0.170954,-0.074 -0.378935,-0.0734 -0.226605,6.8e-4 -0.40015,0.0974 -0.170439,0.0967 -0.297225,0.25854 -0.123681,0.16179 -0.206867,0.37003 -0.08008,0.20822 -0.129084,0.42877 -0.04901,0.22054 -0.07007,0.44101 -0.01797,0.21735 -0.01743,0.39739 z m 4.376523,-2.19856 q 0.01154,-0.29183 0.02936,-0.55574 0.01783,-0.26702 0.04809,-0.52476 0.03025,-0.26084 0.07293,-0.52173 0.04577,-0.26089 0.110123,-0.54046 0.08272,-0.36344 0.215328,-0.65253 0.132601,-0.2922 0.299553,-0.51621 0.170047,-0.22712 0.365125,-0.38912 0.198181,-0.16202 0.405853,-0.26508 0.207662,-0.10617 0.42171,-0.15338 0.21404,-0.0503 0.418916,-0.0509 0.298002,-9e-4 0.531059,0.0791 0.236151,0.0769 0.394858,0.20679 0.161802,0.12679 0.246101,0.28795 0.08741,0.16116 0.08791,0.32878 3.65e-4,0.12107 -0.04281,0.21432 -0.04008,0.0933 -0.111274,0.15865 -0.0681,0.0623 -0.164232,0.0967 -0.09303,0.0344 -0.198565,0.0348 -0.145897,4.4e-4 -0.295094,-0.0643 l -0.01251,-0.031 q 0.05861,-0.12434 0.08626,-0.21755 0.03075,-0.0963 0.03045,-0.19566 -4.49e-4,-0.149 -0.06285,-0.25436 -0.06241,-0.10846 -0.161951,-0.17645 -0.09643,-0.068 -0.220696,-0.0987 -0.121157,-0.0307 -0.239117,-0.0303 -0.248335,7.5e-4 -0.43436,0.0758 -0.186027,0.0751 -0.325322,0.20586 -0.136192,0.13079 -0.231898,0.30491 -0.09262,0.17101 -0.157209,0.36677 -0.0646,0.19576 -0.104317,0.40697 -0.03972,0.2081 -0.06706,0.40686 -0.03643,0.27328 -0.06363,0.51859 -0.0241,0.2422 -0.04509,0.4875 -0.0179,0.24218 -0.02952,0.50297 -0.01164,0.25768 -0.02005,0.55882 0.502925,0.014 0.956164,0.022 0.456343,0.008 0.872322,0.0129 0.05126,-0.49994 0.10269,-0.9471 0.05141,-0.45026 0.109346,-0.79811 0.01218,-0.0808 0.05237,-0.13364 0.0433,-0.0529 0.09909,-0.0841 0.05889,-0.0312 0.124037,-0.0438 0.06515,-0.0126 0.127234,-0.0128 0.102438,-3.1e-4 0.180108,0.0212 0.08078,0.0215 0.152292,0.0616 -0.08862,0.4659 -0.152309,0.96277 -0.06369,0.49686 -0.108804,0.97815 0.468732,-0.001 0.816364,-0.0149 0.350735,-0.0135 0.574142,-0.0452 0.01567,0.0496 0.02202,0.0962 0.0094,0.0434 0.0095,0.0776 2.53e-4,0.0838 -0.05238,0.13054 -0.05264,0.0436 -0.170534,0.0657 -0.117894,0.0221 -0.310334,0.0289 -0.189346,0.004 -0.468722,0.005 l -0.201773,6e-4 q -0.05898,1.8e-4 -0.121063,3.7e-4 -0.06209,-0.003 -0.133498,-0.006 -0.03006,0.32603 -0.05087,0.63031 -0.02082,0.30117 -0.03553,0.57128 -0.01161,0.2701 -0.01712,0.49983 -0.0055,0.22973 -0.005,0.40356 10e-4,0.33215 0.03594,0.5928 0.03493,0.26065 0.1224,0.44353 0.08746,0.17978 0.239856,0.27555 0.152394,0.0958 0.385208,0.0951 0.167626,-5e-4 0.372324,-0.0601 0.207804,-0.0596 0.471267,-0.19077 0.08406,0.0836 0.09685,0.20458 -0.192077,0.12785 -0.387322,0.23399 -0.195255,0.10302 -0.384386,0.17809 -0.189131,0.0751 -0.365947,0.11596 -0.176818,0.0409 -0.335131,0.0414 -0.20798,6.3e-4 -0.382048,-0.0765 -0.170955,-0.074 -0.298807,-0.26606 -0.124756,-0.19519 -0.197145,-0.52402 -0.06928,-0.32884 -0.0708,-0.83171 -0.0017,-0.56186 0.02755,-1.15796 0.03235,-0.5961 0.08955,-1.18918 -0.223521,-0.005 -0.459458,-0.011 -0.232832,-0.005 -0.465665,-0.011 -0.232833,-0.005 -0.456343,-0.008 -0.220416,-0.005 -0.41598,-0.005 -0.01131,0.36943 -0.02862,0.80407 -0.01732,0.43465 -0.04696,0.90037 -0.02654,0.46571 -0.06855,0.94699 -0.04202,0.47818 -0.105831,0.93469 -0.0607,0.4565 -0.14638,0.86962 -0.08567,0.416217 -0.199499,0.754917 -0.181548,0.53137 -0.410191,0.88594 -0.228633,0.35768 -0.48874,0.57266 -0.256993,0.21806 -0.532993,0.30891 -0.279096,0.0939 -0.555369,0.0948 -0.239022,7.2e-4 -0.440953,-0.0515 -0.205035,-0.0522 -0.354308,-0.14173 -0.149271,-0.0896 -0.23345,-0.21038 -0.08727,-0.1177 -0.08768,-0.25117 -2.25e-4,-0.0745 0.0337,-0.14911 0.03393,-0.0715 0.09585,-0.12757 0.05881,-0.0561 0.142511,-0.0935 0.08061,-0.0344 0.176836,-0.0347 0.09051,0.16115 0.199491,0.27257 0.108993,0.11453 0.233375,0.18555 0.124392,0.0741 0.257975,0.10787 0.133583,0.0337 0.270167,0.0333 0.356981,-0.001 0.604615,-0.23464 0.250746,-0.23047 0.417091,-0.65624 0.169458,-0.42269 0.263882,-1.022087 0.09442,-0.5994 0.141883,-1.33213 0.05055,-0.73586 0.06351,-1.58645 0.01606,-0.85371 0.01944,-1.78808 -0.291784,0.004 -0.540062,0.0234 -0.245174,0.0194 -0.412614,0.082 -0.0125,-0.0279 -0.0126,-0.0589 -2.25e-4,-0.0745 0.06787,-0.1399 0.0712,-0.0654 0.198331,-0.11235 0.130226,-0.0501 0.310175,-0.0817 0.17995,-0.0316 0.400319,-0.0416 z m 8.406879,4.34229 q -0.0887,-0.58953 -0.21476,-1.2193 -0.126076,-0.63288 -0.277005,-1.2719 -0.08324,0.18961 -0.191233,0.40723 -0.108001,0.21452 -0.231476,0.4446 -0.120381,0.22697 -0.253159,0.46019 -0.132788,0.23011 -0.265604,0.45091 -0.12972,0.21769 -0.259497,0.41675 -0.126673,0.19905 -0.241042,0.36081 l -0.338469,-0.0362 q -0.07923,-0.53989 -0.183382,-1.10765 -0.101041,-0.56777 -0.223755,-1.11374 -0.119615,-0.54908 -0.257706,-1.04845 -0.134985,-0.49937 -0.282098,-0.90247 -0.01565,-0.0434 -0.02194,-0.0713 -0.0063,-0.0279 -0.0064,-0.0496 -3.64e-4,-0.12106 0.09572,-0.17102 0.09608,-0.05 0.226456,-0.0504 0.111751,-3.4e-4 0.208046,0.0211 0.0994,0.0214 0.201997,0.0739 0.06573,0.17985 0.137874,0.42796 0.07524,0.24501 0.15062,0.53658 0.07848,0.29156 0.150863,0.61728 0.07548,0.32572 0.144785,0.66076 0.0693,0.33505 0.129292,0.67012 0.05999,0.33508 0.104394,0.64847 0.06797,-0.10575 0.157527,-0.26123 0.08955,-0.15548 0.185241,-0.33581 0.09879,-0.18034 0.19445,-0.36999 0.09876,-0.19276 0.182024,-0.37305 0.08327,-0.1803 0.144886,-0.33569 0.06161,-0.1554 0.08922,-0.26413 0.01841,-0.0746 0.02439,-0.14597 0.0091,-0.0745 0.0089,-0.14593 -2.9e-4,-0.0962 -0.01304,-0.20484 -0.01276,-0.11171 -0.03482,-0.2234 -0.01897,-0.11169 -0.04413,-0.22337 -0.02517,-0.11167 -0.05031,-0.21093 -0.02198,-0.0837 -0.02213,-0.13341 -2.99e-4,-0.0993 0.06162,-0.1523 0.06502,-0.0561 0.214021,-0.0565 0.09933,-3e-4 0.201856,0.0273 0.105617,0.0245 0.195779,0.0708 0.100489,0.38462 0.204213,0.80959 0.106815,0.42185 0.207458,0.85614 0.103739,0.43117 0.195052,0.85927 0.0913,0.42501 0.163887,0.81902 0.216254,-0.34522 0.423149,-0.70593 0.21,-0.36072 0.370342,-0.71819 0.163437,-0.36058 0.261704,-0.71476 0.09826,-0.35417 0.09725,-0.68942 -4.21e-4,-0.13969 -0.01944,-0.27001 -0.01903,-0.13343 -0.06596,-0.25435 -0.04382,-0.12093 -0.121756,-0.22934 -0.07793,-0.10842 -0.196171,-0.20119 l 0.03392,-0.0746 q 0.05586,-0.006 0.108619,-0.01 0.05276,-0.003 0.102428,-0.003 0.412857,-10e-4 0.609011,0.19373 0.199256,0.19497 0.200304,0.54264 7.95e-4,0.26385 -0.103737,0.59942 -0.101437,0.33246 -0.274167,0.69928 -0.169626,0.36681 -0.385769,0.74928 -0.216151,0.37936 -0.444786,0.73703 -0.225529,0.35767 -0.444972,0.67496 -0.216348,0.31418 -0.386367,0.55061 z m 5.341688,-3.30966 q -7.39e-4,-0.24523 -0.08199,-0.42503 -0.08125,-0.1798 -0.211973,-0.29427 -0.130722,-0.11446 -0.295412,-0.16984 -0.164691,-0.0554 -0.329212,-0.0549 -0.220397,6.7e-4 -0.372362,0.0477 -0.151965,0.047 -0.247951,0.12802 -0.09289,0.081 -0.136004,0.19288 -0.04002,0.10876 -0.03964,0.23603 4.49e-4,0.14901 0.05368,0.30095 0.05633,0.14883 0.162297,0.29131 l -0.01232,0.0342 q -0.176677,0.0875 -0.356719,0.088 -0.105542,3.2e-4 -0.198762,-0.0304 -0.09012,-0.0339 -0.158603,-0.0957 -0.06538,-0.0619 -0.106001,-0.15179 -0.03752,-0.0899 -0.03786,-0.20166 -5.52e-4,-0.18314 0.08588,-0.34482 0.08953,-0.16169 0.235029,-0.29561 0.145495,-0.13392 0.337636,-0.24004 0.192141,-0.10613 0.396802,-0.17814 0.204652,-0.0751 0.409416,-0.11299 0.207859,-0.041 0.384797,-0.0415 0.325939,-9.8e-4 0.555911,0.0853 0.233076,0.0862 0.376374,0.25342 0.146393,0.16408 0.212291,0.3998 0.069,0.23571 0.0699,0.53371 6.18e-4,0.20488 -0.01727,0.45017 -0.01478,0.24527 -0.0357,0.5154 -0.02093,0.26703 -0.03869,0.55267 -0.01466,0.28563 -0.01381,0.56811 0.0013,0.44701 0.166552,0.67311 0.168299,0.223 0.438364,0.22219 0.239022,-7.2e-4 0.533387,-0.17855 l 0.09042,0.13321 q -0.207354,0.2086 -0.452256,0.31799 -0.244904,0.10939 -0.514969,0.1102 -0.201771,6.1e-4 -0.372707,-0.0672 -0.170936,-0.0678 -0.295505,-0.20088 -0.124579,-0.13621 -0.19349,-0.34088 -0.06891,-0.20467 -0.06972,-0.47474 -2.43e-4,-0.0807 0.0026,-0.16143 0.006,-0.0807 0.02122,-0.17079 l -0.01863,5e-5 q -0.132674,0.26737 -0.308828,0.52865 -0.173058,0.25817 -0.383524,0.46369 -0.207373,0.20239 -0.446021,0.32728 -0.235534,0.12798 -0.496286,0.12877 -0.214189,6.5e-4 -0.391352,-0.0733 -0.177163,-0.074 -0.304827,-0.20396 -0.12456,-0.13 -0.19649,-0.30672 -0.06883,-0.17984 -0.06947,-0.39093 -8.23e-4,-0.27316 0.09783,-0.49696 0.101765,-0.22381 0.27817,-0.40129 0.179509,-0.17748 0.42746,-0.3055 0.247942,-0.13112 0.539483,-0.21581 0.291532,-0.0878 0.61735,-0.12914 0.325809,-0.0444 0.664164,-0.0455 0.02114,-0.19563 0.03301,-0.37881 0.01497,-0.18319 0.0143,-0.40359 z m -1.899542,2.13832 q 3.65e-4,0.12106 0.02553,0.23273 0.02827,0.10857 0.08439,0.19221 0.05923,0.0836 0.1463,0.13304 0.09016,0.0463 0.214328,0.0459 0.139688,-4.2e-4 0.288493,-0.0661 0.148804,-0.0656 0.29125,-0.18092 0.145552,-0.1153 0.27545,-0.274 0.132994,-0.16182 0.237966,-0.35149 0.10497,-0.18968 0.172636,-0.39786 0.07076,-0.2113 0.09183,-0.43177 -0.229692,0.007 -0.456223,0.0324 -0.226539,0.0224 -0.431266,0.0727 -0.201622,0.0503 -0.375213,0.13151 -0.173592,0.0812 -0.300499,0.20268 -0.123812,0.11833 -0.194711,0.28307 -0.07091,0.16163 -0.07027,0.37582 z m 4.330669,1.12619 -0.04968,-0.003 q 0.02394,-0.29497 0.04462,-0.64271 0.02068,-0.34773 0.03823,-0.70477 0.01755,-0.36014 0.0289,-0.71095 0.01445,-0.35392 0.02285,-0.65816 0.01149,-0.30735 0.01386,-0.54949 0.0055,-0.24214 0.005,-0.38183 -3.47e-4,-0.11486 -0.0099,-0.19864 -0.0096,-0.0838 -0.04388,-0.13956 -0.03121,-0.0558 -0.09337,-0.0804 -0.06216,-0.0277 -0.16771,-0.0274 -0.05277,1.6e-4 -0.108627,0.006 -0.05586,0.006 -0.124111,0.019 -0.06825,0.0126 -0.155107,0.0346 -0.08375,0.0189 -0.195423,0.0472 l -0.04723,-0.22336 q 0.514734,-0.18781 0.834241,-0.26327 0.319496,-0.0786 0.431247,-0.0789 0.204876,-6.2e-4 0.292158,0.12018 0.09038,0.11769 0.09109,0.35361 6.6e-5,0.0217 -0.0058,0.12729 -0.0059,0.10556 -0.0178,0.27633 -0.0088,0.16765 -0.02365,0.3912 -0.01485,0.22355 -0.0358,0.48126 -0.01786,0.2546 -0.04185,0.53405 -0.024,0.27635 -0.0511,0.55271 l 0.03105,0.003 q 0.147167,-0.60887 0.331837,-1.13404 0.187765,-0.52828 0.41941,-0.91701 0.234748,-0.38873 0.513461,-0.60997 0.281807,-0.22435 0.617058,-0.22536 0.11796,-3.6e-4 0.22051,0.0366 0.102551,0.0369 0.177257,0.105 0.0747,0.065 0.118436,0.15796 0.04373,0.0899 0.04406,0.19854 4.21e-4,0.13969 -0.06127,0.27025 -0.0586,0.12745 -0.188672,0.22718 l -0.02483,7e-5 q -0.130703,-0.10825 -0.248801,-0.15446 -0.115006,-0.0493 -0.245381,-0.0489 -0.139688,4.2e-4 -0.269906,0.0536 -0.130216,0.0532 -0.238563,0.15283 -0.176452,0.16195 -0.327753,0.42937 -0.15131,0.26431 -0.277608,0.58753 -0.123195,0.32321 -0.224557,0.6805 -0.09827,0.35418 -0.171749,0.69276 -0.07039,0.33546 -0.11605,0.63361 -0.04257,0.29502 -0.06058,0.49685 z m 6.301456,-1.06201 q 0.01866,0.009 0.04664,0.0278 0.03109,0.0154 0.05599,0.0371 0.02489,0.0186 0.04359,0.0433 0.0187,0.0217 0.01876,0.0434 3.8e-5,0.0124 -0.0092,0.0249 -0.173104,0.24266 -0.374334,0.42331 -0.198135,0.17753 -0.415063,0.29925 -0.213833,0.11861 -0.437166,0.17515 -0.223323,0.0597 -0.440616,0.0603 -0.372503,10e-4 -0.68338,-0.15004 -0.310877,-0.15117 -0.535173,-0.41435 -0.224297,-0.26319 -0.352635,-0.61668 -0.125243,-0.35661 -0.126469,-0.76326 -0.001,-0.33214 0.0694,-0.66451 0.0735,-0.33237 0.209176,-0.63389 0.138781,-0.30152 0.336672,-0.55977 0.197883,-0.26135 0.448751,-0.45146 0.253963,-0.19323 0.554742,-0.30278 0.303882,-0.10957 0.65155,-0.11061 0.22971,-7e-4 0.437878,0.0608 0.208168,0.0614 0.363733,0.17895 0.158659,0.11437 0.252299,0.28482 0.09364,0.17045 0.0943,0.38775 9.54e-4,0.31662 -0.206315,0.55317 -0.204166,0.23653 -0.566859,0.40215 -0.362694,0.16562 -0.855951,0.26954 -0.490161,0.10081 -1.061182,0.1522 l 1.59e-4,0.0528 q 0.0012,0.39734 0.101518,0.72608 0.103431,0.32874 0.28108,0.56412 0.177641,0.23228 0.417055,0.36194 0.239415,0.12965 0.515688,0.12882 0.279377,-8.4e-4 0.570759,-0.13831 0.294477,-0.14057 0.594647,-0.4519 z m -0.5911,-2.4909 q -4.3e-4,-0.14279 -0.05047,-0.26681 -0.04693,-0.12403 -0.134125,-0.21378 -0.08409,-0.0929 -0.202212,-0.14529 -0.118118,-0.0524 -0.254703,-0.052 -0.201771,6.1e-4 -0.366078,0.0725 -0.164307,0.0719 -0.294308,0.19645 -0.130011,0.12146 -0.228849,0.28628 -0.09884,0.16171 -0.169692,0.34508 -0.06774,0.18335 -0.110619,0.37594 -0.04288,0.19259 -0.06095,0.37579 0.440701,-0.0324 0.788146,-0.10792 0.350538,-0.0787 0.589206,-0.19734 0.241761,-0.12179 0.368536,-0.2867 0.126767,-0.168 0.126121,-0.38219 z"
         id="text731-6"
         aria-label="Software" />
    </g>
  </g>
</svg>
